<svg xmlns="http://www.w3.org/2000/svg" xmlns:xlink="http://www.w3.org/1999/xlink" viewBox="0,0,256,256" width="24px" height="24px" fill-rule="nonzero"><g fill="#f8a706" fill-rule="nonzero" stroke="none" stroke-width="1" stroke-linecap="butt" stroke-linejoin="miter" stroke-miterlimit="10" stroke-dasharray="" stroke-dashoffset="0" font-family="none" font-weight="none" font-size="none" text-anchor="none" style="mix-blend-mode: normal"><g transform="scale(10.66667,10.66667)"><path d="M8,3c-2.761,0 -5,2.239 -5,5v8c0,2.761 2.239,5 5,5h8c2.761,0 5,-2.239 5,-5v-8c0,-2.761 -2.239,-5 -5,-5zM18,5c0.552,0 1,0.448 1,1c0,0.552 -0.448,1 -1,1c-0.552,0 -1,-0.448 -1,-1c0,-0.552 0.448,-1 1,-1zM12,7c2.761,0 5,2.239 5,5c0,2.761 -2.239,5 -5,5c-2.761,0 -5,-2.239 -5,-5c0,-2.761 2.239,-5 5,-5zM12,9c-1.65685,0 -3,1.34315 -3,3c0,1.65685 1.34315,3 3,3c1.65685,0 3,-1.34315 3,-3c0,-1.65685 -1.34315,-3 -3,-3z"></path></g></g><g fill-opacity="0" fill="#ffffff" fill-rule="nonzero" stroke="none" stroke-width="1" stroke-linecap="butt" stroke-linejoin="miter" stroke-miterlimit="10" stroke-dasharray="" stroke-dashoffset="0" font-family="none" font-weight="none" font-size="none" text-anchor="none" style="mix-blend-mode: normal"><g><path d="M173.07167,189.34667l7.87,15.23l7.92,-15.23h4.54l-10.46,19.02v11.32h-4v-11.32l-10.46,-19.02zM213.15167,219.68667h-4.04c-0.22667,-0.44667 -0.40667,-1.24 -0.54,-2.38v0c-1.79333,1.86 -3.93333,2.79 -6.42,2.79v0c-2.22,0 -4.04333,-0.62667 -5.47,-1.88c-1.42,-1.26 -2.13,-2.85333 -2.13,-4.78v0c0,-2.34667 0.89,-4.17 2.67,-5.47c1.78667,-1.3 4.29667,-1.95 7.53,-1.95v0h3.75v-1.77c0,-1.34667 -0.4,-2.42 -1.2,-3.22c-0.80667,-0.8 -1.99667,-1.2 -3.57,-1.2v0c-1.37333,0 -2.52667,0.34667 -3.46,1.04c-0.92667,0.7 -1.39,1.54333 -1.39,2.53v0h-3.88c0,-1.12667 0.4,-2.21667 1.2,-3.27c0.8,-1.04667 1.88333,-1.87333 3.25,-2.48c1.36667,-0.61333 2.87,-0.92 4.51,-0.92v0c2.6,0 4.63667,0.65 6.11,1.95c1.46667,1.29333 2.23,3.08 2.29,5.36v0v10.38c0,2.06667 0.26333,3.71 0.79,4.93v0zM202.71167,216.74667v0c1.20667,0 2.35333,-0.31333 3.44,-0.94c1.08,-0.62667 1.86333,-1.44 2.35,-2.44v0v-4.62h-3.02c-4.72,0 -7.08,1.38333 -7.08,4.15v0c0,1.20667 0.40333,2.15 1.21,2.83c0.80667,0.68 1.84,1.02 3.1,1.02zM219.84167,197.14667l5.62,16.89l5.25,-16.89h4.13l-9.07,26.02c-1.4,3.74667 -3.62667,5.62 -6.68,5.62v0l-0.73,-0.06l-1.44,-0.27v-3.13l1.04,0.09c1.30667,0 2.32333,-0.26667 3.05,-0.8c0.73333,-0.52667 1.33667,-1.49 1.81,-2.89v0l0.85,-2.29l-8.04,-22.29zM242.88167,189.34667l-0.29,21.77h-3.48l-0.27,-21.77zM238.69167,217.74667v0c0,-0.62667 0.19,-1.15 0.57,-1.57c0.38667,-0.42667 0.95333,-0.64 1.7,-0.64c0.75333,0 1.32333,0.21333 1.71,0.64c0.38667,0.42 0.58,0.94333 0.58,1.57c0,0.62667 -0.19333,1.14333 -0.58,1.55c-0.38667,0.41333 -0.95667,0.62 -1.71,0.62c-0.74667,0 -1.31333,-0.20667 -1.7,-0.62c-0.38,-0.40667 -0.57,-0.92333 -0.57,-1.55z"></path></g></g></svg>